<?xml version="1.0" encoding="UTF-8" standalone="no"?>
<!DOCTYPE svg PUBLIC "-//W3C//DTD SVG 1.1//EN" "http://www.w3.org/Graphics/SVG/1.1/DTD/svg11.dtd">
<svg width="100%" height="100%" viewBox="0 0 3600 3600" version="1.1" style="fill:white; background-color:white;">
    <g id="Layer">
        <g transform="matrix(0.820977,0,0,0.758222,-226.662,-854.885)">
            <rect x="276.088" y="1127.49" width="4385.02" height="4747.95" style="fill:white;"/>
        </g>
        <g transform="matrix(-11.0006,0,0,11.0006,35579.9,-4714.89)">
            <path d="M3049.53,455.061C3125.24,443.353 3196.2,495.313 3207.91,571.02C3219.62,646.727 3167.66,717.696 3091.95,729.403C3016.25,741.111 2945.28,689.151 2933.57,613.444C2921.86,537.737 2973.82,466.768 3049.53,455.061ZM3174.81,634.135C3176.5,634.816 3177.84,636.161 3178.51,637.854C3179.18,639.547 3179.13,641.441 3178.36,643.094C3172.49,655.427 3164.56,666.69 3154.88,676.371C3145.2,686.053 3133.94,693.984 3121.59,699.832C3119.95,700.594 3118.06,700.647 3116.37,699.979C3114.68,699.312 3113.34,697.981 3112.66,696.298C3112.64,696.286 3112.63,696.266 3112.62,696.246C3111.29,692.961 3112.77,689.214 3115.99,687.723C3126.92,682.551 3136.89,675.523 3145.46,666.95C3154.03,658.378 3161.06,648.409 3166.25,637.487C3167.74,634.283 3171.47,632.807 3174.75,634.13C3174.77,634.119 3174.79,634.127 3174.81,634.135ZM3153.27,625.719C3154.98,626.407 3156.32,627.77 3156.98,629.484C3157.65,631.198 3157.57,633.11 3156.78,634.767C3152.13,644.121 3146,652.682 3138.6,660.089C3131.19,667.496 3122.63,673.624 3113.26,678.241C3111.61,679.034 3109.71,679.109 3108,678.448C3106.3,677.788 3104.94,676.45 3104.25,674.753C3104.2,674.689 3104.17,674.614 3104.14,674.54C3102.83,671.293 3104.26,667.586 3107.41,666.063C3115.42,662.126 3122.73,656.883 3129.06,650.554C3135.39,644.224 3140.64,636.912 3144.59,628.915C3146.11,625.774 3149.8,624.347 3153.04,625.654C3153.12,625.659 3153.2,625.689 3153.27,625.719ZM3131.72,616.87C3133.45,617.569 3134.81,618.965 3135.47,620.715C3136.12,622.466 3136,624.41 3135.15,626.072C3131.72,632.527 3127.35,638.462 3122.16,643.652C3116.97,648.842 3111.04,653.206 3104.56,656.607C3102.91,657.454 3100.98,657.568 3099.24,656.92C3097.5,656.272 3096.11,654.922 3095.41,653.2C3095.37,653.179 3095.35,653.143 3095.34,653.108C3094.05,649.923 3095.4,646.284 3098.45,644.709C3103.71,641.972 3108.52,638.429 3112.73,634.221C3116.94,630.013 3120.48,625.205 3123.25,619.962C3124.82,616.927 3128.44,615.583 3131.6,616.863C3131.65,616.842 3131.69,616.856 3131.72,616.87ZM3064.31,550.666C3087.25,547.118 3108.76,562.863 3112.31,585.804C3115.85,608.745 3100.11,630.25 3077.17,633.798C3054.23,637.346 3032.72,621.601 3029.18,598.66C3025.63,575.719 3041.37,554.214 3064.31,550.666ZM3063.27,584.763C3067.39,580.641 3074.09,580.641 3078.21,584.763C3082.33,588.885 3082.33,595.579 3078.21,599.701C3074.09,603.823 3067.39,603.823 3063.27,599.701C3059.15,595.579 3059.15,588.885 3063.27,584.763ZM3046.11,531.265C3045.41,529.529 3044.01,528.168 3042.25,527.514C3040.5,526.861 3038.55,526.976 3036.89,527.831C3030.44,531.265 3024.51,535.626 3019.32,540.812C3014.14,545.997 3009.77,551.927 3006.37,558.394C3005.52,560.05 3005.41,561.988 3006.06,563.732C3006.71,565.477 3008.06,566.868 3009.79,567.565C3009.8,567.61 3009.83,567.621 3009.85,567.631C3013.04,568.919 3016.69,567.565 3018.27,564.507C3021.01,559.253 3024.55,554.448 3028.75,550.243C3032.96,546.038 3037.76,542.497 3043,539.729C3046.04,538.159 3047.39,534.531 3046.11,531.358C3046.13,531.317 3046.12,531.291 3046.11,531.265ZM3037.26,509.716C3036.57,508.007 3035.2,506.66 3033.49,505.995C3031.77,505.33 3029.85,505.406 3028.19,506.204C3018.84,510.847 3010.29,516.972 3002.88,524.375C2995.48,531.778 2989.36,540.334 2984.74,549.695C2983.94,551.348 2983.87,553.257 2984.53,554.967C2985.19,556.678 2986.53,558.039 2988.23,558.726C2988.29,558.778 2988.36,558.804 2988.42,558.83C2991.68,560.145 2995.39,558.71 2996.92,555.549C3000.85,547.545 3006.09,540.237 3012.42,533.91C3018.75,527.584 3026.05,522.343 3034.05,518.384C3037.19,516.864 3038.62,513.163 3037.31,509.922C3037.31,509.846 3037.29,509.781 3037.26,509.716ZM3028.84,488.173C3028.16,486.48 3026.81,485.142 3025.12,484.47C3023.42,483.798 3021.52,483.852 3019.86,484.618C3007.54,490.486 2996.28,498.415 2986.6,508.093C2976.92,517.77 2968.99,529.028 2963.15,541.365C2962.38,543.016 2962.33,544.908 2963,546.599C2963.67,548.291 2965,549.634 2966.69,550.316C2966.69,550.339 2966.7,550.344 2966.71,550.348C2970.01,551.677 2973.76,550.194 2975.26,546.974C2980.43,536.048 2987.45,526.083 2996.02,517.513C3004.59,508.944 3014.56,501.918 3025.47,496.729C3028.68,495.239 3030.16,491.494 3028.84,488.213C3028.85,488.195 3028.85,488.184 3028.84,488.173Z"/>
        </g>
    </g>
</svg>
